<svg xmlns="http://www.w3.org/2000/svg" width="512" height="512" viewBox="0 0 512 512">
  <defs>
    <linearGradient id="bg" x1="0" y1="0" x2="0" y2="1">
      <stop offset="0" stop-color="#164648"/>
      <stop offset="1" stop-color="#2c7058"/>
    </linearGradient>
    <filter id="shadow" x="-20%" y="-20%" width="140%" height="140%">
      <feDropShadow dx="0" dy="12" stdDeviation="14" flood-color="#08191a" flood-opacity="0.38"/>
    </filter>
    <filter id="keyShadow" x="-20%" y="-20%" width="140%" height="140%">
      <feDropShadow dx="5" dy="8" stdDeviation="5" flood-color="#041213" flood-opacity="0.36"/>
    </filter>
    <style>
      .root { font-family: "Noto Serif CJK SC", "Noto Serif CJK", serif; font-weight: 700; fill: #1e312d; text-anchor: middle; dominant-baseline: central; }
      .code { font-family: "Noto Sans CJK SC", "Noto Sans", sans-serif; font-weight: 700; fill: rgba(42,83,74,.82); }
      .key { stroke: #193837; stroke-width: 4; filter: url(#keyShadow); }
      .shine { fill: none; stroke: rgba(255,255,255,.28); stroke-width: 2; }
    </style>
  </defs>
  <rect x="36" y="30" width="440" height="440" rx="104" fill="url(#bg)" filter="url(#shadow)"/>
  <rect x="49" y="43" width="414" height="414" rx="92" fill="none" stroke="rgba(246,239,214,.24)" stroke-width="3"/>
  <path d="M128 66v364M256 66v364M384 66v364M76 154h360M76 258h360M76 362h360" stroke="rgba(248,236,198,.10)" stroke-width="2"/>

  <g>
    <rect class="key" x="82" y="92" width="128" height="128" rx="30" fill="#f6dab3"/>
    <rect class="shine" x="90" y="100" width="112" height="112" rx="20"/>
    <text class="root" x="146" y="152" font-size="72">口</text>
    <text class="code" x="174" y="194" font-size="24">K</text>
  </g>
  <g>
    <rect class="key" x="302" y="92" width="128" height="128" rx="30" fill="#cee6aa"/>
    <rect class="shine" x="310" y="100" width="112" height="112" rx="20"/>
    <text class="root" x="366" y="152" font-size="72">木</text>
    <text class="code" x="394" y="194" font-size="24">S</text>
  </g>
  <g>
    <rect class="key" x="192" y="200" width="128" height="128" rx="30" fill="#c6e5ef"/>
    <rect class="shine" x="200" y="208" width="112" height="112" rx="20"/>
    <text class="root" x="256" y="260" font-size="78">亻</text>
    <text class="code" x="284" y="302" font-size="24">W</text>
  </g>


  <g>
    <rect class="key" x="82" y="338" width="348" height="104" rx="32" fill="#f2bca0"/>
    <rect class="shine" x="90" y="346" width="332" height="88" rx="22"/>
    <path d="M256 356v68" stroke="rgba(32,70,67,.30)" stroke-width="3"/>
    <text class="root" x="176" y="384" font-size="82">五</text>
    <text class="root" x="336" y="384" font-size="82">⺮</text>
    <text class="code" x="218" y="418" font-size="18">G</text>
    <text class="code" x="378" y="418" font-size="18">T</text>
  </g>
</svg>
