<svg xmlns="http://www.w3.org/2000/svg" width="512" height="512" viewBox="0 0 512 512">
  <defs>
    <linearGradient id="bg" x1="0" y1="0" x2="0" y2="1">
      <stop offset="0" stop-color="#164648"/>
      <stop offset="1" stop-color="#2c7058"/>
    </linearGradient>
    <filter id="shadow" x="-20%" y="-20%" width="140%" height="140%">
      <feDropShadow dx="0" dy="12" stdDeviation="14" flood-color="#08191a" flood-opacity="0.38"/>
    </filter>
    <filter id="keyShadow" x="-20%" y="-20%" width="140%" height="140%">
      <feDropShadow dx="5" dy="8" stdDeviation="5" flood-color="#041213" flood-opacity="0.36"/>
    </filter>
    <style>
      .root { font-family: "Noto Serif CJK SC", "Noto Serif CJK", serif; font-weight: 700; text-anchor: middle; dominant-baseline: central; }
      .root-g { fill: #8a4f17; }
      .root-t { fill: #4f5b86; }
      .root-x { fill: #844a34; }
      .root-c { fill: #5d6840; }
      .code { font-family: "Noto Sans CJK SC", "Noto Sans", sans-serif; font-weight: 700; fill: rgba(42,83,74,.82); }
      .key { stroke: #193837; stroke-width: 4; filter: url(#keyShadow); }
      .shine { fill: none; stroke: rgba(255,255,255,.28); stroke-width: 2; }
    </style>
  </defs>
  <rect x="36" y="30" width="440" height="440" rx="104" fill="url(#bg)" filter="url(#shadow)"/>
  <rect x="49" y="43" width="414" height="414" rx="92" fill="none" stroke="rgba(246,239,214,.24)" stroke-width="3"/>
  <path d="M128 66v364M256 66v364M384 66v364M76 154h360M76 258h360M76 362h360" stroke="rgba(248,236,198,.10)" stroke-width="2"/>

  <g>
    <rect class="key" x="54" y="78" width="180" height="180" rx="40" fill="#f6dab3"/>
    <rect class="shine" x="65" y="89" width="158" height="158" rx="30"/>
    <text class="root root-g" x="144" y="162" font-size="126">五</text>
    <text class="code" x="202" y="232" font-size="26">G</text>
  </g>
  <g>
    <rect class="key" x="278" y="78" width="180" height="180" rx="40" fill="#cee6aa"/>
    <rect class="shine" x="289" y="89" width="158" height="158" rx="30"/>
    <text class="root root-t" x="368" y="162" font-size="126">⺮</text>
    <text class="code" x="426" y="232" font-size="26">T</text>
  </g>

  <g>
    <rect class="key" x="54" y="290" width="404" height="152" rx="40" fill="#f2bca0"/>
    <rect class="shine" x="65" y="301" width="382" height="130" rx="30"/>
    <path d="M256 308v116" stroke="rgba(32,70,67,.30)" stroke-width="3"/>
    <text class="root root-x" x="158" y="362" font-size="136">纟</text>
    <text class="root root-c" x="354" y="362" font-size="136">马</text>
    <text class="code" x="222" y="412" font-size="22">X</text>
    <text class="code" x="418" y="412" font-size="22">C</text>
  </g>
</svg>
